<svg width="335" height="236" viewBox="0 0 335 236" fill="none" xmlns="http://www.w3.org/2000/svg">
<path d="M332 45.2874C244.201 35.6456 122.242 69.0226 34.8291 168.78C24.7759 180.252 8.96893 213.015 7.90409 229M3 189.44L5 213C5 206.853 3.76601 226.493 6.18556 232.143C6.65333 233.235 7.24481 233.228 7.90409 232.436C11.8549 227.692 14.2014 222.241 19 218C26.3501 211.504 35.0374 205.979 42.4842 199.592C44.4178 197.933 46.6129 196.285 49.023 195.481M88.7662 56.81C88.7662 65.7999 89.288 74.7411 92.056 83.3839C92.4807 84.71 93.1945 88.6238 94.5822 89.0867M74.4907 65.8057C85.3756 60.6906 95.3771 53.7618 106.39 48.9912C108.254 48.1838 109.738 48.8736 107.272 48.8736M100.927 62.1018C101.076 68.6672 103.838 75.79 106.625 81.6794C107.278 83.0585 107.208 80.2486 107.272 79.0338C107.437 75.8811 108.032 71.5536 109.387 68.7452C111.464 64.4386 110.206 62.1092 114 60C115.791 59.0043 118.242 66.5975 118.904 67.9221M118.904 56.2809C121.009 60.2604 124.793 65.0775 128.949 67.1574C131.308 68.3378 131.504 65.7491 132.151 64.1296C133.083 61.7982 133.604 59.3323 133.892 56.8287M133.892 56.8287C134.184 54.2899 134.237 51.7123 134.237 49.1965C134.237 47.9501 132.65 44.7934 132.65 47.4033C132.65 50.5652 133.151 53.7045 133.892 56.8287ZM133.892 56.8287C135.442 63.3723 138.042 69.8496 139.289 76.3289C140.329 81.7347 142.835 90.7058 136.087 93.261C129.724 95.6706 126.017 87.9531 124.279 83.0606C123.137 79.8464 124.056 78.1001 125.248 81.679M157.501 25.592C157.501 37.2341 158.029 72.1565 158.029 60.5144M158.029 26.6503C160.893 32.5456 163.479 40.8336 168.486 45.2874C168.572 45.3642 169.2 46.4536 169.925 48.0506C170.285 48.8426 170.718 49.7333 170.718 48.2564C170.718 37.9377 171.921 27.7275 173.274 17.5082C173.875 12.9663 175.477 7.71971 175.477 3.16301C175.477 2.36908 176.006 4.69136 176.006 5.48529M179.178 28.2373C179.178 31.1798 178.439 39.8781 183.143 39.8781C184.506 39.8781 187.306 41.4915 188.166 39.5548C190.095 35.2125 190.81 31.8634 190.81 26.9733C190.81 22.8128 187.258 16.2088 182.997 20.9471C181.906 22.1597 181.868 24.0828 180.882 25.1802C179.913 26.2575 178.121 28.9487 178.121 30.3538M194.511 20.3002C194.511 25.9684 196.079 29.6303 198.741 34.2927C199.102 34.9254 199.223 30.4023 199.299 29.7951C199.478 28.3618 200.407 25.5545 201.12 24.2687C201.907 22.8524 202.315 26.0815 202.56 26.7673C203.437 29.2254 205.352 32.7363 207.201 34.5866C208.699 36.0858 209.198 26.6327 209.433 25.4739C210.77 18.8827 212.112 11.7176 214.603 5.48467" stroke="white" stroke-width="5" stroke-linecap="round" stroke-linejoin="round"/>
</svg>
